<svg width="80" height="80" viewBox="0 0 80 80" fill="none" xmlns="http://www.w3.org/2000/svg">
<path fill-rule="evenodd" clip-rule="evenodd" d="M40 6.66669C21.59 6.66669 6.66669 21.59 6.66669 40C6.66669 46.3 8.41669 52.2 11.46 57.2267L8.48669 67.3334C8.31597 67.9136 8.30474 68.5292 8.45417 69.1153C8.6036 69.7014 8.90818 70.2364 9.33588 70.6642C9.76359 71.0919 10.2986 71.3964 10.8847 71.5459C11.4709 71.6953 12.0864 71.6841 12.6667 71.5133L22.7734 68.54C27.9691 71.6832 33.9275 73.3411 40 73.3333C58.41 73.3333 73.3334 58.41 73.3334 40C73.3334 21.59 58.41 6.66669 40 6.66669ZM32.46 47.5433C39.2034 54.2833 45.64 55.1733 47.9134 55.2567C51.37 55.3833 54.7367 52.7434 56.0467 49.68C56.2107 49.2986 56.2699 48.8804 56.2184 48.4685C56.1668 48.0566 56.0063 47.6659 55.7534 47.3367C53.9267 45.0034 51.4567 43.3267 49.0434 41.66C48.5397 41.3108 47.9203 41.1705 47.3154 41.2688C46.7105 41.367 46.1672 41.6961 45.8 42.1867L43.8 45.2367C43.6943 45.4 43.5305 45.5171 43.3417 45.5641C43.1529 45.6112 42.9533 45.5847 42.7834 45.49C41.4267 44.7134 39.45 43.3934 38.03 41.9734C36.61 40.5534 35.37 38.6667 34.6734 37.3967C34.5891 37.2349 34.5653 37.0483 34.6062 36.8705C34.6471 36.6927 34.7501 36.5354 34.8967 36.4267L37.9767 34.14C38.4175 33.7587 38.7021 33.228 38.7759 32.6498C38.8497 32.0717 38.7076 31.4866 38.3767 31.0067C36.8834 28.82 35.1434 26.04 32.62 24.1967C32.2937 23.9622 31.9123 23.816 31.5129 23.7722C31.1134 23.7284 30.7094 23.7885 30.34 23.9467C27.2734 25.26 24.62 28.6267 24.7467 32.09C24.83 34.3634 25.72 40.8 32.46 47.5433Z" fill="#FF6B35"/>
</svg>
