<svg width="80" height="80" viewBox="0 0 80 80" fill="none" xmlns="http://www.w3.org/2000/svg">
<path d="M70 16.6667C70 12.99 67.01 10 63.3333 10H16.6667C12.99 10 10 12.99 10 16.6667V63.3333C10 67.01 12.99 70 16.6667 70H63.3333C67.01 70 70 67.01 70 63.3333V16.6667ZM16.6667 63.3333V16.6667H63.3333L63.34 63.3333H16.6667Z" fill="#FF6B35"/>
<path d="M23.3333 23.3333H29.9933V30H23.3333V23.3333ZM36.6666 23.3333H56.6666V30H36.6666V23.3333ZM23.3333 36.6666H29.9933V43.3333H23.3333V36.6666ZM36.6666 36.6666H56.6666V43.3333H36.6666V36.6666ZM23.3333 50H29.9933V56.6666H23.3333V50ZM36.6666 50H56.6666V56.6666H36.6666V50Z" fill="#FF6B35"/>
</svg>
