<svg width="80" height="80" viewBox="0 0 80 80" fill="none" xmlns="http://www.w3.org/2000/svg">
<path fill-rule="evenodd" clip-rule="evenodd" d="M70 20V70H20V20H70ZM63.3333 26.6667H26.6667V63.3333H63.3333V26.6667ZM57.5969 46.5891L60.0777 50.9303L46.2403 58.8373L44.26 59.9689L42.9519 58.1003L40.5066 54.61L34.7864 58.7009L32.752 60.1541L29.8458 56.0853L31.8802 54.6322L39.658 49.0767L41.7119 47.6098L43.1592 49.6775L45.7367 53.3634L55.4262 47.8294L57.5969 46.5891ZM60 10V16.6667H16.6667V60H10V10H60ZM56.5172 29.8009L60.1991 33.1838L58.5077 35.0247L50.3409 43.9138L48.9258 45.4539L47.16 44.3328L41.9233 41.01L35.1744 48.3581L33.483 50.1991L29.8009 46.8162L31.4923 44.9753L39.6591 36.0862L41.0742 34.5461L42.84 35.6672L48.0733 38.99L54.8256 31.6419L56.5172 29.8009Z" fill="#FF6B35"/>
</svg>
