<svg width="696" height="809" viewBox="0 0 696 809" fill="none" xmlns="http://www.w3.org/2000/svg">
<path d="M667.76 364.49C669.07 366.62 675.49 369.77 676.47 371.35C677.56 373.1 675.45 374.6 674.28 375.49C659.29 380.71 644.62 386.97 629.54 391.92C626.73 392.84 621.83 395.05 619.1 394.44C617.4 394.06 610.76 389.35 608.53 388.13C573.57 369.05 537.72 355.38 497.96 349.71V348.14C514.07 347.48 529.59 347.09 545.61 349.27C569.9 352.58 593.64 361.02 616.07 370.57C622.63 373.36 628.97 376.81 635.6 379.25C620.81 366.4 605.4 354.24 589.36 342.97C557.01 320.23 520.45 299.5 480.75 293.38C448.98 288.48 417.47 292.35 386.69 300.69C385.93 301.41 386.73 301.66 387.47 301.74C416.13 305.11 444.34 312.56 470.89 323.79C474.3 325.23 482.04 328.21 484.73 329.99C485.39 330.42 486 330.88 485.82 331.79C462.59 327.97 437.8 331.81 415.71 339.46C404.76 343.25 392.71 348.42 384.59 356.85C390.84 354.63 397.24 354.2 403.85 354.45C415.37 354.89 429.38 356.6 440.73 358.71C441.58 358.87 441.65 358.35 441.53 359.74C431.69 363.75 422.68 369.62 414.17 375.89C382.61 399.14 354.21 432.38 338.61 468.55C330.49 487.38 324.96 508.37 327.11 529.02L331.6 516.9C345.43 482.12 376.74 438.73 407.63 417.32C408.94 416.41 415.73 411.42 416.76 412.47C418.97 434.53 431.64 455.08 444.28 472.76C458.74 492.98 482.31 518.98 501.4 534.82C501.99 535.31 502.25 536.1 503.24 535.87L490.84 514.79C471.98 477.94 462.6 435.88 478.06 395.99C479.83 391.44 482.61 384.46 485.18 380.45C485.51 379.93 485.13 379.51 486.36 379.77C486.7 405.86 497.81 430.81 511.46 452.5C530.65 483.01 555.92 506.11 588.84 521.19C591.35 522.34 606.69 527.86 607.12 528.75C607.63 529.81 606.25 529.5 605.81 529.53C595.55 530.27 580.86 528.96 570.62 527.27C558.93 525.34 547.76 521.38 536.99 516.61C544.33 525.25 552.9 532.67 560.43 541.17C587.62 571.89 606.23 610.06 608.2 652.12C608.72 663.3 606.78 674.46 607.12 685.63C606.14 685.82 605.81 685.17 605.43 684.43C603.58 680.81 601.88 673.5 600.15 669.15C587.33 637.01 564.2 601.55 536.47 580.43C535.94 580.03 535.81 579.4 534.89 579.64C536.44 584.21 538.22 588.62 539.38 593.34C551 640.99 530.58 702.59 500.6 740.2C498.33 743.04 493.1 749.8 490.63 751.85C489.92 752.44 489.5 752.78 488.49 752.6C488.12 752.26 491.19 747.83 491.59 747C503.65 721.98 509.21 679.1 506.35 651.68C500.73 597.82 464.87 562.88 427.85 527.68L406.22 510.02C406.03 510.94 406.51 511.56 406.81 512.32C409.18 518.21 413.58 525.68 416.67 531.46C436.37 568.32 459.42 603.43 475.92 642.02C476.74 643.93 478.79 647.5 478.25 649.25C429.1 718.76 360.8 773.29 283.09 807.97C282.43 808.16 282.02 807.84 282.3 807.18C282.69 806.23 289.5 801.72 290.97 800.56C349.1 754.71 400.67 701.36 437.82 636.84L361.38 528.47L360.33 528.74C367.13 566.61 380.14 602.56 397.27 636.83L396.47 637.63C361.44 613.06 330.48 582.66 310.15 544.65C276.79 482.27 278.55 405.97 327.1 352.07C333.84 344.59 341.74 338.33 349.26 331.79C307.24 339.87 267.57 362.77 236.4 391.63C232.09 395.62 227.91 400.91 223.49 404.56C222.9 405.05 222.64 405.84 221.65 405.61C245.3 344.84 296.72 298.13 354.88 270.69C358.26 269.09 362.39 267.77 365.61 266.12C366.22 265.81 367.07 265.63 367.2 264.82C318.24 269.15 270.36 283.92 226.21 304.97C212.5 311.51 200.98 319.2 187.99 326.33C187.26 326.73 186.77 327.25 185.8 327.04C185.66 326.06 185.8 325.48 186.3 324.64C187.3 322.92 192.22 318.94 193.98 317.03C196.34 314.46 198.69 311.35 201.08 308.83C233.74 274.51 272.28 246.08 314.47 224.47L236.96 211.02L326.64 173.27L326.36 170.92C307.95 113.95 293.75 55.43 270.68 0.0999771C271.34 -0.510023 274.3 1.80998 275.06 2.29998C288.24 10.9 301.67 21.55 314.4 30.99C363.37 67.29 411 105.34 459.73 141.94C456.36 133.95 452.29 126.18 449.43 117.97C443.63 101.29 441.15 82.6 438.44 65.15C435.47 45.99 433.15 26.66 430.46 7.47998L431.52 7.72998C465.03 51.47 492.93 99.16 524.2 144.44C549.52 181.11 581.35 205.26 612.92 235.54C614.37 236.93 618.69 240.8 619.46 242.18C621.64 246.07 619.28 257.54 618.55 262.27C617.96 266.07 615.6 272.25 617.01 275.75C617.97 278.14 626.27 289.03 628.37 291.55C628.75 292.01 629.75 292.3 630.34 293C650.06 316.15 672.94 336.19 694.93 357.11C696.02 359.46 690.1 361.99 688.31 362.62C687 363.08 681.76 364.48 680.67 364.48H667.75L667.76 364.49ZM470.83 200.73C431.36 162.85 387.17 126.97 346.07 90.54C340.09 85.24 333.75 78.51 327.64 73.64C327.15 73.25 326.18 72.38 325.53 72.6L408.32 221.31L407.61 222.03L351.53 206.9L350.83 207.87C375.74 222.28 401.34 235.4 427.44 247.54L429.93 247.95C422.57 224.1 414.23 200.25 412.01 175.18L470.91 202.5C473.54 202.75 471.58 201.44 470.84 200.73H470.83ZM597.33 309.95C590.25 298.26 584.16 286.02 577.59 274.05L524.06 238.98L523.27 239.77L542.25 271.68L476.86 251.65C476.32 253.69 478.86 253.79 480.37 254.72C506.43 270.7 532.16 286.56 554.64 307.54C555.36 307.7 555.64 307.5 555.42 306.76C555.01 305.38 553.42 303.25 552.78 301.49C551.64 298.35 550.68 294.7 550.22 291.4C550.02 290 549.47 284.67 549.62 283.55C549.72 282.8 549.35 282.64 550.42 282.75L599.47 314.39C601.7 315.05 597.6 310.42 597.32 309.95H597.33Z" fill="#FB6201"/>
<path d="M2.24961 579.65C9.95961 584.07 17.3096 589.14 25.0996 593.45C45.0396 604.49 66.5896 612.61 88.7396 618.14C81.3896 612.24 73.7796 606.64 66.8396 600.23C10.3096 548.02 -8.56039 478.92 3.45961 403.41C4.40961 397.46 6.27961 391.59 6.46961 385.59H8.04961C11.5296 413.3 19.7096 440.34 31.8596 465.41C32.6696 467.08 33.4796 469.34 34.9396 470.49C34.1896 465.28 33.0096 460.09 32.3796 454.87C20.6796 359 84.6796 269.73 167.9 228.77C169.3 228.08 177.11 224.09 177.85 224.75C178.08 225.74 177.29 226 176.8 226.59C168.65 236.53 160.06 245.58 152.64 256.22C96.8796 336.16 90.8896 437.71 143.36 521.07C153.11 536.56 164.58 549.13 175.13 563.66C175.6 564.31 175.68 565.13 176.8 564.88C171.26 551.55 166.56 537.87 163.35 523.76C158.62 502.98 156.17 479.36 157.83 458.11C157.9 457.25 158.16 455.79 158.36 454.94C158.55 454.14 157.99 454.01 159.4 454.15C166.83 478.49 177.74 502.6 190.43 524.64C226.69 587.63 285.65 635.6 352.58 663.08L353.48 664.82C353.39 665.51 340.81 664.07 339.52 664.01C294.08 661.88 253.68 651.94 212.48 632.84C204.35 629.07 196.54 624.57 188.41 620.79C187.86 621.31 189.81 623.02 190.24 623.44C199.86 632.78 211.04 642.38 221.69 650.53C247.33 670.16 275.55 684.81 306.21 695.11L306.54 696.73C298.98 697.54 291.59 699.33 284.05 700.35C189.37 713.16 81.8796 672.95 18.8596 601.82C15.3396 597.85 3.73961 584.66 2.25961 580.72C2.15961 580.46 2.34961 579.96 2.25961 579.67L2.24961 579.65Z" fill="#FB6201"/>
<path d="M359.26 700.41L358.76 702.81C353.24 708.21 348.79 714.64 343.45 720.2C290.24 775.59 206.88 761.63 145.85 727.92C143.75 726.76 129.76 718.93 129.33 718.07C128.86 717.11 129.88 717.24 130.54 717.39C136.56 718.76 143.52 721.75 149.78 723.47C216.7 741.84 287.63 739.02 349.92 707.17L359.25 700.42L359.26 700.41Z" fill="#FB6201"/>
<path d="M457.35 714.13C457.56 715.12 457.19 715.7 456.85 716.53C448.81 736.11 435.34 756.79 423.09 774L366.64 799.55C366.41 798.56 367.2 798.3 367.69 797.71C377.56 785.75 394.57 770.16 406.18 759.21C420.12 746.05 435.27 734.16 449.44 721.26C451.49 719.39 453.4 716.91 455.5 715.19C456.1 714.7 456.35 713.91 457.34 714.14L457.35 714.13Z" fill="#FB6201"/>
<path d="M2.24966 579.65C2.33966 579.95 2.14966 580.45 2.24966 580.7C0.289662 581.17 -0.720338 576.87 0.919662 577.54C1.84966 578.14 1.95966 578.69 2.24966 579.64V579.65Z" fill="#BD7873"/>
</svg>
